<svg xmlns="http://www.w3.org/2000/svg" width="42.817" height="35.5" viewBox="0 0 42.817 35.5">
  <path id="Path_381" data-name="Path 381" d="M43.917,19.2v6.612a6.724,6.724,0,0,0-3.791,1.5,11.1,11.1,0,0,0-3.041,3.614,10.039,10.039,0,0,0-1.19,4.848h8.022V51.2H27.52V37.624A19.535,19.535,0,0,1,29.812,27.8a16.253,16.253,0,0,1,6.039-6.171A18.161,18.161,0,0,1,43.917,19.2ZM21,19.2v6.612a6.724,6.724,0,0,0-3.791,1.5,11.1,11.1,0,0,0-3.041,3.614,10.039,10.039,0,0,0-1.19,4.848H21V51.2H4.6V37.624A19.535,19.535,0,0,1,6.892,27.8a16.253,16.253,0,0,1,6.039-6.171A18.161,18.161,0,0,1,21,19.2Z" transform="translate(-2.85 -17.45)" fill="none" stroke="#0f5fff" stroke-linecap="round" stroke-linejoin="round" stroke-width="3.5"/>
</svg>
